<?xml version="1.0" encoding="utf-8"?>
<!-- Generator: Adobe Illustrator 27.5.0, SVG Export Plug-In . SVG Version: 6.00 Build 0)  -->
<svg version="1.1" xmlns="http://www.w3.org/2000/svg" xmlns:xlink="http://www.w3.org/1999/xlink" x="0px" y="0px"
	 viewBox="0 0 500 500" style="enable-background:new 0 0 500 500;" xml:space="preserve">
<g id="BACKGROUND">
	<rect style="fill:#F9FBFC;" width="500" height="500"/>
</g>
<g id="OBJECTS">
	<g>
		<radialGradient id="SVGID_1_" cx="233.4009" cy="171.8046" r="52.3574" gradientUnits="userSpaceOnUse">
			<stop  offset="0" style="stop-color:#E1F244"/>
			<stop  offset="1" style="stop-color:#A8C041"/>
		</radialGradient>
		<circle style="fill:url(#SVGID_1_);" cx="248.94" cy="184.726" r="35.253"/>
		
			<linearGradient id="SVGID_00000038406735546013241920000000782670639528139169_" gradientUnits="userSpaceOnUse" x1="231.8892" y1="155.3307" x2="295.7373" y2="265.4023">
			<stop  offset="0" style="stop-color:#E1F244"/>
			<stop  offset="1" style="stop-color:#8E9A1A"/>
		</linearGradient>
		<path style="fill:url(#SVGID_00000038406735546013241920000000782670639528139169_);" d="M209.865,193.838l-11.476,5.793
			c-1.493,0.754-0.757,3.018,0.893,2.75l12.676-2.057C211.081,198.247,210.385,196.077,209.865,193.838z M208.813,184.726
			c0-1.15,0.06-2.285,0.155-3.41l-12.711,1.964c-1.653,0.255-1.653,2.636,0,2.892l12.711,1.964
			C208.873,187.011,208.813,185.876,208.813,184.726z M214.587,205.473l-9.119,9.05c-1.187,1.178,0.213,3.104,1.7,2.339
			l11.439-5.883C217.12,209.263,215.769,207.426,214.587,205.473z M216.804,226.498c-0.765,1.487,1.161,2.887,2.339,1.7l9.05-9.119
			c-1.953-1.182-3.79-2.533-5.507-4.02L216.804,226.498z M198.389,169.821l11.476,5.793c0.52-2.239,1.216-4.409,2.094-6.487
			l-12.676-2.057C197.631,166.803,196.896,169.067,198.389,169.821z M216.804,142.954l5.883,11.439
			c1.717-1.487,3.554-2.838,5.507-4.02l-9.05-9.119C217.965,140.067,216.039,141.467,216.804,142.954z M281.076,142.954
			c0.765-1.487-1.161-2.887-2.339-1.7l-9.051,9.119c1.953,1.182,3.79,2.533,5.507,4.02L281.076,142.954z M288.016,175.614
			l11.477-5.793c1.493-0.754,0.757-3.018-0.894-2.75l-12.676,2.057C286.799,171.205,287.496,173.376,288.016,175.614z
			 M214.587,163.98c1.182-1.953,2.533-3.79,4.02-5.507l-11.439-5.883c-1.487-0.765-2.887,1.161-1.7,2.34L214.587,163.98z
			 M283.293,163.98l9.119-9.05c1.187-1.178-0.212-3.104-1.7-2.34l-11.439,5.883C280.76,160.189,282.111,162.027,283.293,163.98z
			 M231.285,234.384c-0.268,1.651,1.997,2.387,2.75,0.894l5.793-11.476c-2.238-0.52-4.409-1.216-6.487-2.094L231.285,234.384z
			 M283.293,205.473c-1.182,1.953-2.533,3.79-4.02,5.507l11.439,5.883c1.487,0.765,2.887-1.161,1.7-2.339L283.293,205.473z
			 M263.845,134.174l-5.793,11.476c2.239,0.52,4.409,1.216,6.487,2.094l2.057-12.676
			C266.863,133.417,264.599,132.681,263.845,134.174z M301.624,183.28l-12.711-1.964c0.095,1.125,0.155,2.26,0.155,3.41
			c0,1.15-0.06,2.285-0.155,3.41l12.711-1.964C303.276,185.917,303.276,183.536,301.624,183.28z M299.492,199.631l-11.477-5.793
			c-0.52,2.239-1.216,4.409-2.094,6.487l12.676,2.057C300.249,202.649,300.985,200.385,299.492,199.631z M275.193,215.059
			c-1.716,1.487-3.554,2.838-5.507,4.02l9.051,9.119c1.178,1.187,3.104-0.212,2.339-1.7L275.193,215.059z M245.53,224.699
			l1.964,12.711c0.255,1.653,2.636,1.653,2.892,0l1.964-12.711c-1.125,0.095-2.26,0.154-3.41,0.154
			C247.79,224.853,246.655,224.794,245.53,224.699z M264.539,221.708c-2.077,0.877-4.248,1.574-6.487,2.094l5.793,11.476
			c0.754,1.493,3.018,0.757,2.75-0.894L264.539,221.708z M231.285,135.068l2.057,12.676c2.078-0.877,4.248-1.574,6.487-2.094
			l-5.793-11.476C233.282,132.681,231.017,133.417,231.285,135.068z M247.494,132.043l-1.964,12.711
			c1.125-0.095,2.26-0.154,3.41-0.154c1.15,0,2.285,0.06,3.41,0.154l-1.964-12.711C250.131,130.39,247.75,130.39,247.494,132.043z"
			/>
	</g>
	<g>
		<g>
			
				<linearGradient id="SVGID_00000178927376775526465110000015573832658764094381_" gradientUnits="userSpaceOnUse" x1="398.9297" y1="221.1087" x2="281.85" y2="255.8585">
				<stop  offset="0" style="stop-color:#FF8F78"/>
				<stop  offset="1" style="stop-color:#D45E5E"/>
			</linearGradient>
			<path style="fill:url(#SVGID_00000178927376775526465110000015573832658764094381_);" d="M334.87,228.089
				c-16.68,6.61-33.99,12.15-51.48,16.25c-6.05,1.47-13.77,2.99-19.93,4.01c-3.79,0.71-9.59,1.4-13.46,1.95v7.365l103.24-7.981
				v-18.984v-10.58C347.62,222.859,340.78,225.709,334.87,228.089z"/>
			
				<linearGradient id="SVGID_00000052801508068033755030000004860147721335418789_" gradientUnits="userSpaceOnUse" x1="369.2246" y1="205.5161" x2="272.1222" y2="234.3365">
				<stop  offset="0" style="stop-color:#FF8F78"/>
				<stop  offset="1" style="stop-color:#D45E5E"/>
			</linearGradient>
			<path style="fill:url(#SVGID_00000052801508068033755030000004860147721335418789_);" d="M331.43,205.029
				c-0.54,0.55-1.28,1.24-1.96,1.86c-4.26,3.86-8.91,7.43-13.57,10.81c-9.54,6.78-19.73,12.8-30.22,18.09
				c-11.4,5.65-23.6,10.54-35.68,14.51c3.86-0.92,37.906-3.997,81.43-28.549V205.029z"/>
		</g>
		<g>
			
				<linearGradient id="SVGID_00000174570162189486782760000002335319396062151605_" gradientUnits="userSpaceOnUse" x1="309.761" y1="221.1087" x2="192.6813" y2="255.8585" gradientTransform="matrix(-1 0 0 1 410.8313 0)">
				<stop  offset="0" style="stop-color:#FF8F78"/>
				<stop  offset="1" style="stop-color:#D45E5E"/>
			</linearGradient>
			<path style="fill:url(#SVGID_00000174570162189486782760000002335319396062151605_);" d="M165.13,228.089
				c16.68,6.61,33.99,12.15,51.48,16.25c6.05,1.47,13.77,2.99,19.93,4.01c3.79,0.71,9.59,1.4,13.46,1.95v7.365l-103.24-7.981
				v-18.984v-10.58C152.38,222.859,159.22,225.709,165.13,228.089z"/>
			
				<linearGradient id="SVGID_00000086661140956159715450000006925608234825857180_" gradientUnits="userSpaceOnUse" x1="280.0559" y1="205.5161" x2="182.9535" y2="234.3365" gradientTransform="matrix(-1 0 0 1 410.8313 0)">
				<stop  offset="0" style="stop-color:#FF8F78"/>
				<stop  offset="1" style="stop-color:#D45E5E"/>
			</linearGradient>
			<path style="fill:url(#SVGID_00000086661140956159715450000006925608234825857180_);" d="M168.57,205.029
				c0.54,0.55,1.28,1.24,1.96,1.86c4.26,3.86,8.91,7.43,13.57,10.81c9.54,6.78,19.73,12.8,30.22,18.09
				c11.4,5.65,23.6,10.54,35.68,14.51c-3.86-0.92-37.907-3.997-81.43-28.549V205.029z"/>
		</g>
		<g>
			
				<linearGradient id="SVGID_00000031887604896817795690000002165021769598007987_" gradientUnits="userSpaceOnUse" x1="280.9499" y1="236.4144" x2="348.9545" y2="253.0414">
				<stop  offset="0" style="stop-color:#345C54"/>
				<stop  offset="1" style="stop-color:#1B2D41"/>
			</linearGradient>
			<path style="fill:url(#SVGID_00000031887604896817795690000002165021769598007987_);" d="M364.003,233.837
				c0,0-36.2,15.434-106.967,16.451v3.164c0,0,31.702,0.222,57.64,0.222s51.222-17.715,51.222-17.715L364.003,233.837z"/>
			
				<linearGradient id="SVGID_00000114773378809732795680000000356404164810548371_" gradientUnits="userSpaceOnUse" x1="317.0574" y1="233.8668" x2="299.11" y2="306.4455">
				<stop  offset="0" style="stop-color:#345C54"/>
				<stop  offset="1" style="stop-color:#1B2D41"/>
			</linearGradient>
			<path style="fill:url(#SVGID_00000114773378809732795680000000356404164810548371_);" d="M258.052,251.398v46.482h97.846
				l10-61.921C365.898,235.958,330.085,250.38,258.052,251.398z"/>
		</g>
		<g>
			
				<linearGradient id="SVGID_00000151519483735255729800000011290110653474559653_" gradientUnits="userSpaceOnUse" x1="59.3712" y1="236.4144" x2="127.3758" y2="253.0414" gradientTransform="matrix(-1 0 0 1 278.4213 0)">
				<stop  offset="0" style="stop-color:#345C54"/>
				<stop  offset="1" style="stop-color:#1B2D41"/>
			</linearGradient>
			<path style="fill:url(#SVGID_00000151519483735255729800000011290110653474559653_);" d="M135.997,233.837
				c0,0,36.2,15.434,106.967,16.451v3.164c0,0-31.702,0.222-57.64,0.222s-51.222-17.715-51.222-17.715L135.997,233.837z"/>
			
				<linearGradient id="SVGID_00000074422781238000014400000013857086592943039923_" gradientUnits="userSpaceOnUse" x1="95.4787" y1="233.8668" x2="77.5313" y2="306.4455" gradientTransform="matrix(-1 0 0 1 278.4213 0)">
				<stop  offset="0" style="stop-color:#345C54"/>
				<stop  offset="1" style="stop-color:#1B2D41"/>
			</linearGradient>
			<path style="fill:url(#SVGID_00000074422781238000014400000013857086592943039923_);" d="M241.948,251.398v46.482h-97.846
				l-10-61.921C134.102,235.958,169.915,250.38,241.948,251.398z"/>
		</g>
		
			<linearGradient id="SVGID_00000170989222663884461870000014384096907237177233_" gradientUnits="userSpaceOnUse" x1="254.5544" y1="256.2211" x2="244.3307" y2="297.5649">
			<stop  offset="0" style="stop-color:#345C54"/>
			<stop  offset="1" style="stop-color:#1B2D41"/>
		</linearGradient>
		
			<rect x="241.948" y="251.398" style="fill:url(#SVGID_00000170989222663884461870000014384096907237177233_);" width="16.104" height="46.482"/>
		
			<linearGradient id="SVGID_00000170274851894316039790000003911157757303184266_" gradientUnits="userSpaceOnUse" x1="254.1676" y1="249.4207" x2="253.4675" y2="252.2518">
			<stop  offset="0" style="stop-color:#345C54"/>
			<stop  offset="1" style="stop-color:#1B2D41"/>
		</linearGradient>
		<path style="fill:url(#SVGID_00000170274851894316039790000003911157757303184266_);" d="M250,248.588
			c6.858,0,8.052,2.81,8.052,2.81L250,251.456V248.588z"/>
		
			<linearGradient id="SVGID_00000098211666735057280650000016230559369866626176_" gradientUnits="userSpaceOnUse" x1="238.0632" y1="249.4207" x2="237.3631" y2="252.2518" gradientTransform="matrix(-1 0 0 1 483.8956 0)">
			<stop  offset="0" style="stop-color:#345C54"/>
			<stop  offset="1" style="stop-color:#1B2D41"/>
		</linearGradient>
		<path style="fill:url(#SVGID_00000098211666735057280650000016230559369866626176_);" d="M250,248.588
			c-6.858,0-8.052,2.81-8.052,2.81l8.052,0.059V248.588z"/>
	</g>
</g>
<g id="TEXTS">
	
		<text transform="matrix(1 0 0 1 97.8652 351.6045)" style="fill:#414042; font-family:'ProzaLibre-ExtraBold'; font-size:44.314px;">THE LIBRARY</text>
	<text transform="matrix(1 0 0 1 163.6913 383.5254)" style="fill:#A7A9AC; font-family:'Dosis-SemiBold'; font-size:20.9059px;">YOUR TAGLINE HERE</text>
</g>
</svg>
